<svg width="183" height="181" viewBox="0 0 183 181" fill="none" xmlns="http://www.w3.org/2000/svg">
<path d="M74.6217 157.163L78.0551 158.114L77.5416 159.881L74.1308 158.937C72.9562 158.611 71.9097 158.585 70.9911 158.858C70.0705 159.138 69.2915 159.668 68.654 160.448C68.0068 161.234 67.5176 162.225 67.1861 163.422L66.9078 164.427C66.6472 165.368 66.5288 166.235 66.5525 167.028C66.5741 167.829 66.7334 168.541 67.0304 169.167C67.3253 169.8 67.7526 170.336 68.3121 170.774C68.864 171.211 69.5466 171.542 70.3597 171.767L74.0641 172.792L73.5701 174.577L69.8657 173.551C68.789 173.253 67.8565 172.8 67.0681 172.193C66.2776 171.593 65.6562 170.866 65.2038 170.011C64.7418 169.161 64.47 168.211 64.3884 167.159C64.3047 166.114 64.4276 164.997 64.7569 163.807L65.029 162.825C65.3583 161.635 65.8286 160.61 66.4397 159.75C67.0487 158.897 67.7734 158.226 68.614 157.738C69.4471 157.247 70.3729 156.948 71.3915 156.841C72.4005 156.739 73.4773 156.847 74.6217 157.163ZM72.3391 174.236L76.8918 157.792L79.0715 158.395L74.5188 174.839L72.3391 174.236Z" fill="white"/>
<path d="M49.7057 147.589L50.6727 146.024L58.3592 150.773L57.3921 152.338L49.7057 147.589ZM49.0021 165.048L57.9704 150.532L59.8945 151.721L50.9262 166.237L49.0021 165.048ZM46.5772 154.926L47.5443 153.361L54.2138 157.482L53.2468 159.047L46.5772 154.926ZM41.8042 160.601L42.7774 159.025L50.3641 163.713L49.3909 165.288L41.8042 160.601Z" fill="white"/>
<path d="M39.2561 138.865L25.1428 144.827L23.5021 143.009L40.4019 136.269L41.5715 137.565L39.2561 138.865ZM31.6583 152.049L39.0677 138.656L40.5746 136.46L41.7442 137.757L33.2989 153.868L31.6583 152.049Z" fill="white"/>
<path d="M25.8941 116.338L27.5503 115.537L31.4859 123.669L29.8298 124.471L25.8941 116.338ZM15.9281 130.69L31.2868 123.258L32.272 125.294L16.9133 132.726L15.9281 130.69ZM19.3156 120.849L20.9718 120.048L24.3867 127.105L22.7306 127.906L19.3156 120.849ZM12.2426 123.074L13.9093 122.268L17.7939 130.295L16.1272 131.102L12.2426 123.074Z" fill="white"/>
<path d="M21.5859 98.4786L23.3931 98.1337L24.9927 106.514L23.1854 106.859L21.5859 98.4786ZM8.14926 109.275L24.9092 106.076L25.3332 108.298L8.57333 111.497L8.14926 109.275Z" fill="white"/>
<path d="M15.1783 77.1788L16.2516 77.2808C17.5271 77.4019 18.6553 77.67 19.636 78.0849C20.6168 78.4999 21.4326 79.0404 22.0835 79.7065C22.7343 80.3726 23.2065 81.1434 23.5 82.0188C23.7943 82.8865 23.8923 83.8375 23.794 84.8719C23.6987 85.8752 23.4245 86.7791 22.9714 87.5836C22.519 88.3803 21.9097 89.0523 21.1436 89.5994C20.3782 90.1388 19.4741 90.5277 18.4313 90.7661C17.3884 91.0045 16.2293 91.0631 14.9537 90.9419L13.8805 90.8399C12.6049 90.7188 11.4811 90.4472 10.5088 90.0252C9.5295 89.5947 8.71479 89.0426 8.06467 88.3687C7.40678 87.694 6.9307 86.9229 6.63645 86.0553C6.34293 85.1798 6.24383 84.2405 6.33914 83.2372C6.43741 82.2028 6.71274 81.2872 7.16512 80.4905C7.61824 79.686 8.23101 79.0183 9.00343 78.4874C9.76882 77.948 10.6722 77.5669 11.7136 77.344C12.7479 77.1127 13.9028 77.0576 15.1783 77.1788ZM16.0399 79.509L14.9433 79.4048C13.9322 79.3088 13.0278 79.3288 12.2301 79.4649C11.4332 79.5932 10.7514 79.8306 10.1849 80.177C9.61831 80.5234 9.17159 80.9714 8.8447 81.5211C8.51855 82.063 8.32112 82.6956 8.2524 83.4189C8.1859 84.1189 8.26179 84.7657 8.48006 85.3593C8.69907 85.9451 9.0538 86.4654 9.54425 86.9201C10.0354 87.367 10.6596 87.7363 11.4166 88.0279C12.1737 88.3196 13.0577 88.5134 14.0688 88.6095L15.1654 88.7137C16.1843 88.8105 17.0968 88.7873 17.903 88.6441C18.7015 88.5003 19.3882 88.2516 19.9633 87.8982C20.5313 87.5362 20.978 87.0882 21.3035 86.554C21.6296 86.0121 21.8259 85.3912 21.8924 84.6912C21.9619 83.9602 21.8875 83.2978 21.6692 82.7042C21.4509 82.1106 21.0958 81.5942 20.6039 81.1551C20.1049 80.7074 19.4762 80.3456 18.7177 80.0695C17.9513 79.7926 17.0588 79.6058 16.0399 79.509Z" fill="white"/>
<path d="M22.582 61.7099L20.8098 65.9099L19.1147 65.1946L20.8869 60.9946C21.2302 60.1813 21.3785 59.468 21.332 58.8548C21.2855 58.2416 21.0805 57.7226 20.717 57.2979C20.3566 56.866 19.8813 56.5255 19.291 56.2765C18.7512 56.0487 18.1936 55.9533 17.6183 55.9904C17.0461 56.0202 16.5097 56.2263 16.0091 56.6087C15.5014 56.988 15.0759 57.5844 14.7327 58.3977L13.1655 62.1119L27.1798 68.0255L26.3005 70.1093L10.5803 63.4758L13.0268 57.6779C13.528 56.4902 14.1568 55.5727 14.9134 54.9253C15.6699 54.2778 16.5013 53.8952 17.4074 53.7772C18.3064 53.6563 19.2202 53.7917 20.1487 54.1835C21.1564 54.6088 21.927 55.1841 22.4604 55.9094C22.9938 56.6348 23.2745 57.4867 23.3025 58.4652C23.3234 59.4407 23.0832 60.5223 22.582 61.7099Z" fill="white"/>
<path d="M40.8008 42.3807L42.2283 43.5413L36.5286 50.5518L35.101 49.3912L40.8008 42.3807ZM23.5779 39.4335L36.8169 50.1972L35.3901 51.9521L22.1511 41.1884L23.5779 39.4335ZM33.9273 38.3329L35.3549 39.4935L30.4092 45.5765L28.9816 44.4159L33.9273 38.3329ZM28.9154 32.8685L30.352 34.0366L24.7262 40.9561L23.2896 39.7881L28.9154 32.8685Z" fill="white"/>
<path d="M37.9759 24.4617L42.5995 21.2171C43.6482 20.4811 44.6461 20.0194 45.5931 19.832C46.5466 19.6402 47.4318 19.7252 48.2489 20.0871C49.0679 20.4382 49.7961 21.0677 50.4333 21.9758C50.8821 22.6153 51.1616 23.2924 51.2719 24.0072C51.3841 24.7111 51.3274 25.4191 51.1016 26.131C50.8778 26.8321 50.493 27.5078 49.9472 28.1581L49.5706 28.723L45.2252 31.7724L44.1491 30.2799L47.4297 27.9777C48.0948 27.511 48.5672 27.0077 48.8469 26.4678C49.1221 25.9215 49.2325 25.3716 49.1781 24.8181C49.1237 24.2645 48.9282 23.7479 48.5916 23.2683C48.2146 22.7311 47.7792 22.3351 47.2855 22.0803C46.7917 21.8256 46.2415 21.7488 45.6349 21.85C45.0302 21.9403 44.3729 22.2345 43.6631 22.7327L40.8909 24.6781L49.6285 37.129L47.7772 38.4283L37.9759 24.4617ZM55.9403 32.6996L48.1017 28.7516L50.0231 27.389L57.8356 31.1978L57.9164 31.3129L55.9403 32.6996Z" fill="white"/>
<path d="M72.2809 16.9257L73.9429 13.2861L70.2645 12.9595L70.4531 11.1271L74.1806 11.6948L73.2722 7.76586L75.0175 7.41011L75.7219 11.4524L78.8839 9.48039L79.7702 11.1296L76.458 12.893L79.3544 15.5437L78.1482 16.9019L75.3498 14.0278L73.9292 17.6781L72.2809 16.9257Z" fill="white"/>
<path d="M104.766 24.1802L101.286 23.4137L101.705 21.622L105.161 22.3834C106.352 22.6456 107.398 22.6162 108.301 22.295C109.205 21.9663 109.955 21.3955 110.55 20.5826C111.154 19.7638 111.59 18.7478 111.857 17.5347L112.082 16.5162C112.292 15.5625 112.364 14.6904 112.298 13.8999C112.234 13.1018 112.037 12.3984 111.707 11.7897C111.379 11.1734 110.924 10.6611 110.342 10.2529C109.767 9.84637 109.068 9.55234 108.244 9.37081L104.49 8.54385L104.889 6.73564L108.642 7.56261C109.733 7.80296 110.689 8.20542 111.508 8.76997C112.33 9.3269 112.989 10.0201 113.486 10.8497C113.993 11.6732 114.315 12.6082 114.452 13.6544C114.591 14.6931 114.528 15.8151 114.263 17.0206L114.043 18.0162C113.778 19.2217 113.363 20.2703 112.798 21.1619C112.236 22.0459 111.548 22.7543 110.734 23.2871C109.928 23.8216 109.02 24.1694 108.008 24.3306C107.006 24.4858 105.925 24.4356 104.766 24.1802ZM106.136 7.01046L102.465 23.6734L100.256 23.1868L103.927 6.52386L106.136 7.01046Z" fill="white"/>
<path d="M130.156 32.415L129.273 34.0294L121.345 29.6964L122.227 28.0819L130.156 32.415ZM129.929 14.9432L121.746 29.9156L119.761 28.8309L127.944 13.8586L129.929 14.9432ZM132.889 24.9211L132.007 26.5356L125.127 22.7758L126.01 21.1613L132.889 24.9211ZM137.353 19.0009L136.465 20.6256L128.64 16.3488L129.528 14.724L137.353 19.0009Z" fill="white"/>
<path d="M141.055 40.5699L154.831 33.865L156.566 35.5935L140.049 43.2234L138.812 41.9911L141.055 40.5699ZM147.94 27.0003L141.254 40.7684L139.866 43.0415L138.629 41.8091L146.205 25.2717L147.94 27.0003Z" fill="white"/>
<path d="M155.597 62.3539L153.986 63.2423L149.623 55.3304L151.234 54.442L155.597 62.3539ZM164.785 47.4913L149.844 55.7306L148.752 53.7501L163.693 45.5107L164.785 47.4913ZM161.926 57.4987L160.315 58.3872L156.529 51.522L158.141 50.6335L161.926 57.4987ZM168.871 54.9003L167.25 55.7944L162.943 47.9852L164.564 47.0911L168.871 54.9003Z" fill="white"/>
<path d="M160.85 79.9585L159.064 80.3992L157.021 72.1163L158.807 71.6756L160.85 79.9585ZM173.693 68.4618L157.127 72.5486L156.586 70.3528L173.151 66.2659L173.693 68.4618Z" fill="white"/>
<path d="M168.383 100.887L167.305 100.842C166.025 100.789 164.884 100.582 163.883 100.219C162.881 99.8574 162.038 99.361 161.353 98.7305C160.667 98.1 160.155 97.3555 159.815 96.4969C159.475 95.6461 159.326 94.7017 159.37 93.6635C159.411 92.6566 159.637 91.7393 160.047 90.9119C160.456 90.0922 161.029 89.3887 161.765 88.8016C162.5 88.2222 163.382 87.7857 164.411 87.4922C165.44 87.1986 166.594 87.0784 167.874 87.1315L168.951 87.1762C170.232 87.2293 171.368 87.4406 172.362 87.8102C173.362 88.188 174.205 88.696 174.89 89.3343C175.583 89.973 176.1 90.7177 176.44 91.5685C176.78 92.427 176.928 93.3598 176.887 94.3667C176.844 95.4049 176.617 96.3338 176.208 97.1535C175.798 97.981 175.222 98.6803 174.479 99.2516C173.743 99.831 172.862 100.26 171.834 100.538C170.813 100.824 169.663 100.94 168.383 100.887ZM167.398 98.606L168.499 98.6516C169.514 98.6937 170.416 98.6256 171.205 98.4472C171.994 98.2767 172.662 98.0033 173.209 97.6273C173.757 97.2512 174.179 96.78 174.476 96.2137C174.773 95.6552 174.936 95.013 174.966 94.2871C174.996 93.5845 174.885 92.9427 174.636 92.3615C174.386 91.7882 174.004 91.2876 173.49 90.8596C172.976 90.4395 172.333 90.104 171.561 89.8531C170.79 89.6021 169.897 89.4556 168.882 89.4135L167.781 89.3678C166.759 89.3254 165.849 89.3971 165.051 89.583C164.262 89.7692 163.589 90.054 163.034 90.4376C162.486 90.8293 162.064 91.3005 161.767 91.8512C161.47 92.4096 161.307 93.0402 161.278 93.7427C161.248 94.4764 161.357 95.1339 161.607 95.715C161.856 96.2962 162.238 96.7929 162.753 97.2052C163.275 97.6257 163.922 97.9535 164.694 98.1889C165.474 98.4245 166.376 98.5636 167.398 98.606Z" fill="white"/>
<path d="M161.813 116.728L163.359 112.44L165.09 113.064L163.544 117.352C163.244 118.183 163.134 118.903 163.213 119.513C163.292 120.122 163.525 120.63 163.91 121.035C164.293 121.447 164.786 121.761 165.388 121.979C165.94 122.177 166.501 122.243 167.074 122.175C167.644 122.115 168.169 121.881 168.648 121.472C169.135 121.066 169.528 120.448 169.827 119.618L171.195 115.825L156.885 110.666L157.653 108.539L173.704 114.326L171.569 120.246C171.132 121.458 170.553 122.408 169.832 123.095C169.111 123.782 168.301 124.208 167.402 124.374C166.511 124.543 165.591 124.456 164.643 124.114C163.614 123.743 162.814 123.21 162.243 122.514C161.672 121.818 161.346 120.982 161.266 120.007C161.193 119.034 161.376 117.941 161.813 116.728Z" fill="white"/>
<path d="M144.649 137L143.162 135.917L148.48 128.613L149.967 129.696L144.649 137ZM162.004 139.026L148.211 128.982L149.542 127.154L163.336 137.198L162.004 139.026ZM151.728 140.676L150.241 139.593L154.856 133.255L156.343 134.338L151.728 140.676ZM157.024 145.866L155.527 144.776L160.776 137.567L162.273 138.657L157.024 145.866Z" fill="white"/>
<path d="M148.424 154.743L143.979 158.229C142.971 159.02 141.999 159.534 141.064 159.772C140.122 160.014 139.233 159.976 138.398 159.658C137.562 159.351 136.801 158.761 136.116 157.889C135.634 157.274 135.319 156.613 135.171 155.905C135.021 155.208 135.04 154.498 135.228 153.775C135.414 153.063 135.762 152.368 136.273 151.689L136.619 151.105L140.795 147.829L141.949 149.262L138.796 151.735C138.157 152.237 137.712 152.764 137.461 153.318C137.216 153.879 137.135 154.434 137.218 154.983C137.302 155.533 137.525 156.039 137.887 156.5C138.292 157.016 138.747 157.388 139.254 157.617C139.761 157.845 140.314 157.892 140.915 157.759C141.514 157.636 142.154 157.308 142.837 156.772L145.501 154.682L136.113 142.714L137.893 141.318L148.424 154.743ZM130.046 147.473L138.084 150.998L136.238 152.461L128.234 149.074L128.147 148.963L130.046 147.473Z" fill="white"/>
<path d="M114.569 164.094L113.103 167.817L116.793 167.948L116.702 169.788L112.95 169.419L114.066 173.294L112.342 173.742L111.424 169.743L108.371 171.881L107.398 170.281L110.612 168.344L107.579 165.851L108.711 164.431L111.658 167.152L112.883 163.431L114.569 164.094Z" fill="white"/>
</svg>
