<svg width="221" height="216" viewBox="0 0 221 216" fill="none" xmlns="http://www.w3.org/2000/svg">
<circle cx="80.2614" cy="134.75" r="75.7499" stroke="url(#paint0_linear_15_161)" stroke-width="2"/>
<g filter="url(#filter0_f_15_161)">
<path fill-rule="evenodd" clip-rule="evenodd" d="M138.282 185.917C161.321 159.81 163.007 121.259 140.146 93.1916C113.638 60.6469 64.1639 54.523 29.6427 79.5134C27.327 81.1898 25.1374 82.9636 23.0754 84.8241C26.7511 80.6591 30.9702 76.811 35.7198 73.3726C70.241 48.3822 119.715 54.5061 146.223 87.0508C170.953 117.412 166.959 160.043 138.282 185.917Z" fill="#F95025" fill-opacity="0.7"/>
</g>
<g filter="url(#filter1_f_15_161)">
<path fill-rule="evenodd" clip-rule="evenodd" d="M19.1596 177.892C45.7653 210.849 95.4214 217.051 130.07 191.743C136.526 187.027 142.006 181.55 146.477 175.545C141.568 183.133 135.148 190.015 127.276 195.764C92.628 221.072 42.9719 214.87 16.3662 181.913C-5.28143 155.097 -4.99937 118.83 14.5208 92.613C-2.17905 118.426 -1.40156 152.422 19.1596 177.892Z" fill="#1BFAF4" fill-opacity="0.8"/>
</g>
<defs>
<filter id="filter0_f_15_161" x="-34.9246" y="3.05176e-05" width="255.454" height="243.917" filterUnits="userSpaceOnUse" color-interpolation-filters="sRGB">
<feFlood flood-opacity="0" result="BackgroundImageFix"/>
<feBlend mode="normal" in="SourceGraphic" in2="BackgroundImageFix" result="shape"/>
<feGaussianBlur stdDeviation="29" result="effect1_foregroundBlur_15_161"/>
</filter>
<filter id="filter1_f_15_161" x="-37" y="55.613" width="220.477" height="192.719" filterUnits="userSpaceOnUse" color-interpolation-filters="sRGB">
<feFlood flood-opacity="0" result="BackgroundImageFix"/>
<feBlend mode="normal" in="SourceGraphic" in2="BackgroundImageFix" result="shape"/>
<feGaussianBlur stdDeviation="18.5" result="effect1_foregroundBlur_15_161"/>
</filter>
<linearGradient id="paint0_linear_15_161" x1="124.907" y1="67.7819" x2="42.3881" y2="211.5" gradientUnits="userSpaceOnUse">
<stop stop-color="#F95025"/>
<stop offset="1" stop-color="#1BFAF4"/>
</linearGradient>
</defs>
</svg>
