<svg width="144" height="209" viewBox="0 0 144 209" fill="none" xmlns="http://www.w3.org/2000/svg">
<circle cx="59.8439" cy="106.052" r="45.2247" transform="rotate(-120.111 59.8439 106.052)" stroke="url(#paint0_linear_15_142)" stroke-width="2"/>
<g filter="url(#filter0_f_15_142)">
<path fill-rule="evenodd" clip-rule="evenodd" d="M68.9712 60.3629C48.4084 56.2474 27.8136 67.0171 20.098 87.408C11.1513 111.052 22.909 138.679 46.3595 149.114C47.9328 149.814 49.5187 150.419 51.1112 150.931C47.8305 150.274 44.5507 149.239 41.3241 147.803C17.8735 137.368 6.1158 109.741 15.0625 86.0973C23.4089 64.0394 46.8263 53.2401 68.9712 60.3629Z" fill="#F95025" fill-opacity="0.7"/>
</g>
<g filter="url(#filter1_f_15_142)">
<path fill-rule="evenodd" clip-rule="evenodd" d="M100.782 124.851C109.915 101.031 98.1425 73.2864 74.4884 62.8811C70.0804 60.942 65.5709 59.7419 61.0917 59.2269C66.5286 59.4919 72.0534 60.7576 77.4273 63.1215C101.081 73.5269 112.854 101.272 103.721 125.091C96.2909 144.472 77.3106 155.283 57.7532 153.034C76.2477 153.936 93.7249 143.259 100.782 124.851Z" fill="#1BFAF4" fill-opacity="0.8"/>
</g>
<defs>
<filter id="filter0_f_15_142" x="-45.935" y="0.184326" width="172.906" height="208.746" filterUnits="userSpaceOnUse" color-interpolation-filters="sRGB">
<feFlood flood-opacity="0" result="BackgroundImageFix"/>
<feBlend mode="normal" in="SourceGraphic" in2="BackgroundImageFix" result="shape"/>
<feGaussianBlur stdDeviation="29" result="effect1_foregroundBlur_15_142"/>
</filter>
<filter id="filter1_f_15_142" x="20.7532" y="22.2269" width="123.062" height="168.101" filterUnits="userSpaceOnUse" color-interpolation-filters="sRGB">
<feFlood flood-opacity="0" result="BackgroundImageFix"/>
<feBlend mode="normal" in="SourceGraphic" in2="BackgroundImageFix" result="shape"/>
<feGaussianBlur stdDeviation="18.5" result="effect1_foregroundBlur_15_142"/>
</filter>
<linearGradient id="paint0_linear_15_142" x1="86.7328" y1="65.7182" x2="37.0336" y2="152.276" gradientUnits="userSpaceOnUse">
<stop stop-color="#F95025"/>
<stop offset="1" stop-color="#1BFAF4"/>
</linearGradient>
</defs>
</svg>
