<svg width="112" height="49" viewBox="0 0 112 49" fill="none" xmlns="http://www.w3.org/2000/svg">
<path id="Union" fill-rule="evenodd" clip-rule="evenodd" d="M65.25 47.375C65.25 47.1667 65.2083 46.9896 65.125 46.8438C64.7708 46.1562 64.4583 45.2708 64.1875 44.1875C63.9167 43.1042 63.6771 41.8854 63.4688 40.5312C63.2812 39.1771 63.1146 37.7188 62.9688 36.1562C62.9675 36.1398 62.9662 36.1234 62.9649 36.107C63.4962 37.1632 64.1121 38.1484 64.8125 39.0625C66.0417 40.6667 67.4792 42.0625 69.125 43.25C70.7917 44.4167 72.5833 45.3854 74.5 46.1562C76.4375 46.9271 78.4479 47.5 80.5312 47.875C82.6354 48.25 84.7396 48.4375 86.8438 48.4375C89.5312 48.4375 92.1354 48.0521 94.6562 47.2812C97.1771 46.5312 99.5 45.5417 101.625 44.3125C103.771 43.0625 105.677 41.6667 107.344 40.125C109.01 38.5625 110.333 36.9896 111.312 35.4062C111.375 35.3021 111.417 35.1979 111.438 35.0938C111.458 34.9896 111.469 34.8854 111.469 34.7812C111.469 34.4896 111.365 34.2292 111.156 34C110.948 33.75 110.667 33.625 110.312 33.625C110.104 33.625 109.906 33.6771 109.719 33.7812C109.531 33.8646 109.385 34 109.281 34.1875C108.385 35.625 107.177 37.0521 105.656 38.4688C104.135 39.8854 102.385 41.1667 100.406 42.3125C98.4479 43.4375 96.3125 44.3542 94 45.0625C91.6875 45.75 89.2812 46.0938 86.7812 46.0938C84.9062 46.0938 83.0208 45.9375 81.125 45.625C79.2292 45.2917 77.4062 44.7917 75.6562 44.125C73.9271 43.4375 72.3021 42.5729 70.7812 41.5312C69.2812 40.4896 67.9688 39.2604 66.8438 37.8438C65.7188 36.4062 64.8333 34.7708 64.1875 32.9375C63.9859 32.346 63.8167 31.7318 63.6802 31.0948C64.5862 30.9836 65.4011 30.8895 66.125 30.8125C67.1042 30.6875 67.9583 30.5833 68.6875 30.5C69.4167 30.4167 70.0312 30.3438 70.5312 30.2812C71.0312 30.2188 71.4688 30.1667 71.8438 30.125C72.1562 30.0833 72.4062 29.9583 72.5938 29.75C72.8021 29.5208 72.9062 29.2604 72.9062 28.9688C72.9062 28.6146 72.7708 28.3333 72.5 28.125C72.25 27.8958 71.9896 27.7812 71.7188 27.7812C71.6354 27.7812 70.875 27.8646 69.4375 28.0312C68.1159 28.1653 66.0811 28.4051 63.333 28.7505C63.2777 28.1134 63.25 27.457 63.25 26.7812C63.25 24.2812 63.6354 21.9792 64.4062 19.875C65.1979 17.7708 66.25 15.875 67.5625 14.1875C68.875 12.4792 70.3958 10.9896 72.125 9.71875C73.875 8.44792 75.7083 7.38542 77.625 6.53125C79.5417 5.67708 81.4792 5.04167 83.4375 4.625C85.4167 4.1875 87.3021 3.96875 89.0938 3.96875C91.4688 3.96875 93.6979 4.22917 95.7812 4.75C97.8854 5.27083 99.7188 6.01042 101.281 6.96875C102.844 7.90625 104.083 9.05208 105 10.4062C105.917 11.7396 106.375 13.2188 106.375 14.8438C106.375 16.3229 106.01 17.7396 105.281 19.0938C104.552 20.4479 103.552 21.6458 102.281 22.6875C101.01 23.7292 99.5208 24.5625 97.8125 25.1875C96.125 25.8125 94.3125 26.125 92.375 26.125C91.3333 26.125 90.2917 26.0208 89.25 25.8125C88.2083 25.5833 87.2604 25.2188 86.4062 24.7188C85.5521 24.1979 84.8542 23.5312 84.3125 22.7188C83.7917 21.9062 83.5312 20.9062 83.5312 19.7188C83.5312 18.9688 83.6458 18.2812 83.875 17.6562C84.125 17.0312 84.3958 16.5 84.6875 16.0625C84.9792 15.6042 85.25 15.25 85.5 15C85.75 14.7292 85.8958 14.5833 85.9375 14.5625C86.2083 14.3125 86.3438 14 86.3438 13.625C86.3438 13.2917 86.2292 13.0208 86 12.8125C85.7708 12.6042 85.4896 12.5 85.1562 12.5C85.0312 12.5 84.8958 12.5208 84.75 12.5625C84.625 12.5833 84.5104 12.6458 84.4062 12.75L83.8125 13.3438C83.4792 13.6771 83.1146 14.1458 82.7188 14.75C82.3438 15.3542 81.9896 16.0833 81.6562 16.9375C81.3438 17.7708 81.1875 18.6979 81.1875 19.7188C81.1875 20.9479 81.4271 22.0938 81.9062 23.1562C82.3854 24.2188 83.0938 25.1458 84.0312 25.9375C84.9688 26.7292 86.1354 27.3542 87.5312 27.8125C88.9271 28.25 90.5312 28.4688 92.3438 28.4688C94.5938 28.4688 96.7083 28.1042 98.6875 27.375C100.688 26.6458 102.427 25.6562 103.906 24.4062C105.406 23.1562 106.583 21.7083 107.438 20.0625C108.292 18.3958 108.719 16.6458 108.719 14.8125C108.719 12.8333 108.198 11.0417 107.156 9.4375C106.135 7.8125 104.74 6.42708 102.969 5.28125C101.198 4.11458 99.125 3.21875 96.75 2.59375C94.3958 1.94792 91.875 1.625 89.1875 1.625C86.75 1.625 84.3646 1.90625 82.0312 2.46875C79.6979 3.03125 77.4792 3.84375 75.375 4.90625C73.2708 5.94792 71.3333 7.21875 69.5625 8.71875C67.7917 10.2188 66.2604 11.9062 64.9688 13.7812C64.0409 15.1131 63.2582 16.531 62.6206 18.0349C62.6315 17.6892 62.6434 17.3442 62.6562 17C62.7604 14.75 62.875 12.6979 63 10.8438C63.1458 8.96875 63.2812 7.38542 63.4062 6.09375C63.5521 4.80208 63.6562 3.95833 63.7188 3.5625C63.9062 3.33333 64.1042 3.05208 64.3125 2.71875C64.5208 2.38542 64.625 2.07292 64.625 1.78125C64.625 1.38542 64.4792 1.0625 64.1875 0.8125C63.8958 0.541667 63.5938 0.40625 63.2812 0.40625C62.7188 0.40625 62.3125 0.645833 62.0625 1.125C61.8125 1.58333 61.625 2.09375 61.5 2.65625C61.0833 3.34375 60.5521 4.21875 59.9062 5.28125C59.2604 6.32292 58.5312 7.48958 57.7188 8.78125C56.9062 10.0521 56.0312 11.4167 55.0938 12.875C54.1771 14.3125 53.2292 15.7708 52.25 17.25C51.2917 18.7292 50.3229 20.1875 49.3438 21.625C48.3646 23.0625 47.4271 24.4167 46.5312 25.6875C45.9896 26.4583 45.3333 27.3333 44.5625 28.3125C43.7917 29.2917 42.9062 30.3333 41.9062 31.4375C39.8229 31.6458 37.8438 31.8021 35.9688 31.9062C34.0938 32.0104 32.3125 32.0625 30.625 32.0625C27.6875 32.0625 25.0729 31.9062 22.7812 31.5938C20.4896 31.2812 18.5521 30.8229 16.9688 30.2188C15.4062 29.5938 14.2083 28.8333 13.375 27.9375C12.5625 27.0208 12.1562 25.9688 12.1562 24.7812C12.1562 24.0938 12.3021 23.4583 12.5938 22.875C12.8854 22.2708 13.2083 21.7604 13.5625 21.3438C13.9167 20.9062 14.25 20.5625 14.5625 20.3125C14.875 20.0625 15.0521 19.9167 15.0938 19.875C15.2604 19.7708 15.3854 19.6354 15.4688 19.4688C15.5521 19.2812 15.5938 19.0938 15.5938 18.9062C15.5938 18.5521 15.4688 18.2708 15.2188 18.0625C14.9688 17.8542 14.6979 17.75 14.4062 17.75C14.0312 17.75 13.5833 17.9688 13.0625 18.4062C12.5417 18.8229 12.0417 19.375 11.5625 20.0625C11.0833 20.7292 10.6667 21.4792 10.3125 22.3125C9.97917 23.1458 9.8125 23.9792 9.8125 24.8125C9.8125 26.6458 10.375 28.1771 11.5 29.4062C12.6458 30.6354 14.1771 31.625 16.0938 32.375C18.0104 33.1042 20.2292 33.625 22.75 33.9375C25.2708 34.25 27.9271 34.4062 30.7188 34.4062C32.1354 34.4062 33.5729 34.375 35.0312 34.3125C36.4896 34.25 37.9583 34.1562 39.4375 34.0312C37.9375 35.5312 36.2604 37.0104 34.4062 38.4688C32.5729 39.9271 30.5833 41.2292 28.4375 42.375C26.3125 43.5 24.0521 44.4167 21.6562 45.125C19.2604 45.8333 16.75 46.1875 14.125 46.1875C12.2083 46.1875 10.5521 46.0104 9.15625 45.6562C7.76042 45.3021 6.60417 44.9062 5.6875 44.4688C4.79167 44.0312 4.11458 43.625 3.65625 43.25C3.19792 42.8542 2.94792 42.6354 2.90625 42.5938C2.67708 42.3438 2.38542 42.2188 2.03125 42.2188C1.71875 42.2188 1.44792 42.3333 1.21875 42.5625C0.989583 42.7917 0.875 43.0729 0.875 43.4062C0.875 43.7396 0.979167 44.0104 1.1875 44.2188C1.22917 44.2604 1.52083 44.5104 2.0625 44.9688C2.58333 45.4271 3.36458 45.9271 4.40625 46.4688C5.46875 46.9896 6.80208 47.4583 8.40625 47.875C10.0312 48.3125 11.9479 48.5312 14.1562 48.5312C19.1146 48.5312 24.0521 47.2812 28.9688 44.7812C33.9062 42.2604 38.6042 38.5729 43.0625 33.7188C44.875 33.5312 46.6562 33.3125 48.4062 33.0625C50.9062 32.7292 53.125 32.4375 55.0625 32.1875C57.0208 31.9375 58.7812 31.7083 60.3438 31.5C60.4271 33.25 60.5312 34.9479 60.6562 36.5938C60.8021 38.2188 60.9792 39.7396 61.1875 41.1562C61.4167 42.5729 61.6771 43.8646 61.9688 45.0312C62.2812 46.1771 62.6354 47.1354 63.0312 47.9062C63.1354 48.1146 63.2708 48.2708 63.4375 48.375C63.625 48.4792 63.8333 48.5312 64.0625 48.5312C64.4167 48.5312 64.6979 48.4167 64.9062 48.1875C65.1354 47.9583 65.25 47.6875 65.25 47.375ZM54.7812 29.8438C52.7812 30.0938 50.5521 30.3854 48.0938 30.7188C47.6146 30.7812 47.1458 30.8438 46.6875 30.9062C46.25 30.9688 45.8021 31.0208 45.3438 31.0625C45.8646 30.4167 46.3854 29.7604 46.9062 29.0938C47.4271 28.4271 47.9375 27.7396 48.4375 27.0312C49.4375 25.6146 50.4896 24.0938 51.5938 22.4688C52.6979 20.8438 53.7917 19.2083 54.875 17.5625C55.9583 15.8958 57 14.2708 58 12.6875C59.0208 11.0833 59.9479 9.625 60.7812 8.3125C60.5938 10.2917 60.4479 12.625 60.3438 15.3125C60.2396 17.9792 60.1875 20.7812 60.1875 23.7188V26.4375L60.25 29.125C58.625 29.3333 56.8021 29.5729 54.7812 29.8438Z" fill="white"/>
</svg>
