<svg width="88" height="88" viewBox="0 0 88 88" fill="none" xmlns="http://www.w3.org/2000/svg">
<path d="M36.8088 76.5392L38.5475 76.9261L38.3388 77.8221L36.6115 77.4377C36.0167 77.3053 35.4938 77.319 35.0428 77.4788C34.591 77.6424 34.2165 77.9272 33.9194 78.3333C33.6177 78.7423 33.4002 79.2502 33.2671 79.8568L33.1553 80.3662C33.0506 80.8431 33.0148 81.2794 33.048 81.6749C33.0803 82.0743 33.1789 82.4264 33.344 82.7312C33.5082 83.0399 33.7358 83.2967 34.0267 83.5015C34.3139 83.7054 34.6634 83.8532 35.0752 83.9449L36.9512 84.3624L36.7527 85.2666L34.8767 84.8491C34.3315 84.7278 33.854 84.5255 33.4442 84.2422C33.0337 83.9628 32.704 83.6153 32.4553 83.1998C32.2019 82.7872 32.0407 82.3192 31.9717 81.7956C31.9018 81.2758 31.933 80.7145 32.0654 80.1116L32.1746 79.6137C32.307 79.0109 32.514 78.4867 32.7958 78.0412C33.0767 77.5995 33.4203 77.2458 33.8266 76.98C34.229 76.7134 34.6829 76.5403 35.1883 76.4607C35.689 76.384 36.2292 76.4102 36.8088 76.5392ZM36.1293 85.1279L37.9584 76.795L39.0622 77.0407L37.2331 85.3735L36.1293 85.1279Z" fill="white"/>
<path d="M24.6915 72.392L25.1283 71.5824L29.0917 73.7502L28.655 74.5598L24.6915 72.392ZM24.8407 81.1489L28.8913 73.6406L29.8834 74.1832L25.8328 81.6915L24.8407 81.1489ZM23.3436 76.1494L23.7803 75.3397L27.2195 77.2208L26.7827 78.0304L23.3436 76.1494ZM21.1291 79.1189L21.5687 78.3041L25.4807 80.4438L25.0412 81.2585L21.1291 79.1189Z" fill="white"/>
<path d="M19.6345 68.3458L12.79 71.7495L11.9204 70.8873L20.128 67.0116L20.7479 67.6263L19.6345 68.3458ZM16.2435 75.1737L19.5346 68.2468L20.2195 67.1023L20.8395 67.717L17.1131 76.0359L16.2435 75.1737Z" fill="white"/>
<path d="M12.792 57.7567L13.5922 57.3028L15.7979 61.2453L14.9977 61.6992L12.792 57.7567ZM8.26571 65.255L15.6863 61.0459L16.2385 62.0328L8.81786 66.2419L8.26571 65.255ZM9.65382 60.2238L10.454 59.77L12.3679 63.1909L11.5677 63.6448L9.65382 60.2238ZM6.20017 61.5631L7.00543 61.1063L9.18255 64.9977L8.37729 65.4545L6.20017 61.5631Z" fill="white"/>
<path d="M10.4018 49.1672L11.2941 48.9434L12.3186 53.0842L11.4263 53.308L10.4018 49.1672ZM3.9902 54.9436L12.2651 52.868L12.5367 53.9658L4.26179 56.0414L3.9902 54.9436Z" fill="white"/>
<path d="M6.81133 38.4928L7.34978 38.5184C7.98969 38.5488 8.55951 38.656 9.05926 38.8401C9.559 39.0242 9.97937 39.2749 10.3204 39.5922C10.6614 39.9095 10.9156 40.2833 11.0832 40.7136C11.2509 41.14 11.3226 41.6127 11.2983 42.1317C11.2747 42.635 11.1594 43.093 10.9523 43.5055C10.7455 43.9141 10.4573 44.2641 10.0878 44.5555C9.71848 44.843 9.27626 45.0586 8.76116 45.2022C8.24606 45.3459 7.66855 45.4026 7.02865 45.3722L6.4902 45.3466C5.85029 45.3162 5.28251 45.2071 4.78685 45.0193C4.28747 44.8274 3.86738 44.5709 3.52657 44.2497C3.18186 43.9283 2.92564 43.5544 2.75792 43.1279C2.59037 42.6976 2.51839 42.2308 2.54198 41.7274C2.56629 41.2085 2.68188 40.7447 2.88873 40.3361C3.09576 39.9236 3.3858 39.5756 3.75885 39.2922C4.12818 39.0047 4.57021 38.793 5.08495 38.6572C5.59597 38.5172 6.17143 38.4624 6.81133 38.4928ZM7.2974 39.6363L6.74724 39.6102C6.24 39.5861 5.78882 39.6174 5.3937 39.7042C4.99876 39.7872 4.66397 39.9218 4.38932 40.1082C4.11467 40.2946 3.9023 40.5289 3.7522 40.8112C3.60229 41.0895 3.51884 41.4102 3.50183 41.773C3.48538 42.1242 3.53876 42.4455 3.66198 42.7368C3.78538 43.0242 3.97499 43.2757 4.23081 43.4912C4.48681 43.7028 4.80734 43.8725 5.19241 44.0003C5.57748 44.1281 6.02363 44.204 6.53087 44.2281L7.08103 44.2543C7.59217 44.2785 8.04735 44.2454 8.44655 44.1549C8.84186 44.0642 9.17888 43.9237 9.45761 43.7336C9.73263 43.5394 9.945 43.3051 10.0947 43.0307C10.2446 42.7523 10.3278 42.4375 10.3443 42.0864C10.3615 41.7196 10.3084 41.3905 10.1852 41.0992C10.062 40.8078 9.87231 40.5583 9.61612 40.3506C9.35622 40.1388 9.03355 39.973 8.64812 39.853C8.25878 39.7328 7.80855 39.6606 7.2974 39.6363Z" fill="white"/>
<path d="M10.2657 30.8376L9.48965 32.9807L8.62609 32.6637L9.40214 30.5205C9.55243 30.1055 9.60812 29.7452 9.56921 29.4396C9.5303 29.1341 9.41478 28.8795 9.22266 28.6758C9.03186 28.4684 8.78612 28.3095 8.48543 28.1991C8.21041 28.0982 7.92995 28.0639 7.64404 28.0962C7.35946 28.1249 7.09729 28.2409 6.85751 28.4441C6.61406 28.646 6.4172 28.9545 6.26691 29.3695L5.58063 31.2647L12.7202 33.8858L12.3351 34.9491L4.32653 32.0089L5.39784 29.0505C5.61729 28.4444 5.90733 27.9704 6.26797 27.6285C6.6286 27.2865 7.03334 27.0751 7.48217 26.9944C7.92733 26.9123 8.38643 26.9581 8.85947 27.1318C9.37284 27.3203 9.7718 27.5895 10.0564 27.9395C10.3409 28.2894 10.5027 28.7088 10.5418 29.1975C10.5772 29.6849 10.4852 30.2316 10.2657 30.8376Z" fill="white"/>
<path d="M18.7603 21.2232L19.502 21.7674L16.8534 25.4271L16.1117 24.8829L18.7603 21.2232ZM10.109 20.1953L16.9874 25.242L16.3244 26.1581L9.446 21.1114L10.109 20.1953ZM15.2305 19.3746L15.9722 19.9188L13.6741 23.0944L12.9324 22.5502L15.2305 19.3746ZM12.5892 16.7681L13.3356 17.3157L10.7214 20.928L9.97502 20.3804L12.5892 16.7681Z" fill="white"/>
<path d="M16.8032 12.6391L19.0268 10.8979C19.5312 10.503 20.0168 10.2467 20.4837 10.1291C20.9537 10.0091 21.3965 10.0296 21.8119 10.1905C22.2281 10.3458 22.6057 10.643 22.9447 11.082C23.1835 11.3912 23.3389 11.7234 23.411 12.0787C23.4838 12.4286 23.4726 12.7847 23.3773 13.147C23.2828 13.5038 23.1075 13.852 22.8514 14.1914L22.6775 14.4839L20.5877 16.1203L20.0161 15.3995L21.5939 14.164C21.9137 13.9136 22.1368 13.6496 22.263 13.3721C22.3869 13.0916 22.4286 12.8133 22.3882 12.5374C22.3478 12.2614 22.2381 12.0075 22.059 11.7756C21.8584 11.5159 21.6322 11.3284 21.3802 11.2132C21.1283 11.0979 20.8526 11.0732 20.553 11.139C20.2542 11.1994 19.9341 11.3633 19.5927 11.6306L18.2594 12.6746L22.9085 18.6937L22.0181 19.391L16.8032 12.6391ZM25.944 16.3167L21.947 14.535L22.8707 13.8042L26.8513 15.5169L26.8943 15.5725L25.944 16.3167Z" fill="white"/>
<path d="M34.5355 8.04946L35.3469 6.21784L33.5071 6.07854L33.5918 5.16065L35.4573 5.42026L34.9828 3.46074L35.853 3.27135L36.2262 5.28891L37.7958 4.2817L38.2474 5.1009L36.6016 6.00475L38.0627 7.31181L37.4672 7.9991L36.0538 6.5797L35.3631 8.41504L34.5355 8.04946Z" fill="white"/>
<path d="M51.7396 11.9351L50.0081 11.5171L50.2325 10.625L51.9526 11.0402C52.545 11.1831 53.068 11.1788 53.5218 11.0271C53.9764 10.8716 54.3558 10.5935 54.66 10.1927C54.9689 9.78911 55.1953 9.28519 55.3391 8.68098L55.4599 8.17368C55.573 7.69867 55.6164 7.26312 55.5903 6.86702C55.565 6.46712 55.4726 6.11329 55.3129 5.80553C55.1542 5.49397 54.9312 5.23319 54.6439 5.0232C54.3604 4.81413 54.0136 4.6601 53.6035 4.56112L51.7353 4.1102L51.9497 3.20959L53.8179 3.66051C54.3609 3.79157 54.8347 4.00238 55.2394 4.29293C55.6449 4.57968 55.9684 4.93301 56.2097 5.35291C56.4558 5.76994 56.6087 6.24083 56.6685 6.7656C56.7291 7.28656 56.688 7.84725 56.5451 8.44766L56.427 8.94356C56.2841 9.54397 56.0678 10.0644 55.7783 10.5048C55.4896 10.9415 55.1398 11.289 54.729 11.5475C54.3219 11.8069 53.865 11.9719 53.3583 12.0425C52.8563 12.1102 52.3168 12.0744 51.7396 11.9351ZM52.5705 3.35944L50.5947 11.6587L49.4954 11.3934L51.4712 3.09411L52.5705 3.35944Z" fill="white"/>
<path d="M63.7812 16.2982L63.3302 17.0999L59.406 14.8619L59.857 14.0601L63.7812 16.2982ZM63.7872 7.53954L59.6045 14.9751L58.6221 14.4148L62.8048 6.97931L63.7872 7.53954ZM65.1954 12.5652L64.7444 13.367L61.3393 11.425L61.7903 10.6232L65.1954 12.5652ZM67.462 9.63536L67.0081 10.4422L63.1348 8.23321L63.5887 7.42634L67.462 9.63536Z" fill="white"/>
<path d="M68.7658 20.434L75.6696 17.1523L76.5238 18.0298L68.2487 21.7593L67.6398 21.1337L68.7658 20.434ZM72.2774 13.6674L68.8639 20.5348L68.1588 21.6669L67.5499 21.0413L71.4233 12.7899L72.2774 13.6674Z" fill="white"/>
<path d="M75.4206 31.1432L74.6125 31.5827L72.4768 27.6018L73.285 27.1623L75.4206 31.1432ZM80.0793 23.7269L72.5849 27.8032L72.0503 26.8067L79.5447 22.7304L80.0793 23.7269ZM78.6022 28.7323L77.7941 29.1719L75.9409 25.7177L76.7491 25.2781L78.6022 28.7323ZM82.0792 27.4548L81.266 27.8971L79.158 23.9679L79.9712 23.5255L82.0792 27.4548Z" fill="white"/>
<path d="M77.6598 39.7739L76.7637 39.9817L75.8124 35.8235L76.7086 35.6157L77.6598 39.7739ZM84.1727 34.113L75.8621 36.0406L75.6099 34.9382L83.9205 33.0107L84.1727 34.113Z" fill="white"/>
<path d="M81.0622 50.5111L80.5242 50.4759C79.885 50.434 79.3172 50.3166 78.8207 50.1237C78.3243 49.9307 77.9084 49.6725 77.5731 49.3491C77.2378 49.0258 76.9901 48.6475 76.8302 48.2142C76.67 47.7849 76.6067 47.311 76.6401 46.7925C76.6726 46.2897 76.7959 45.8339 77.0102 45.4251C77.2242 45.0203 77.5185 44.6755 77.8931 44.3907C78.2674 44.1099 78.7134 43.9022 79.2309 43.7677C79.7485 43.6333 80.3269 43.587 80.9661 43.6288L81.504 43.664C82.1433 43.7058 82.7091 43.825 83.2013 44.0217C83.6972 44.2224 84.1127 44.4864 84.4478 44.8137C84.7868 45.1412 85.0364 45.5197 85.1966 45.949C85.3565 46.3822 85.4202 46.8503 85.3878 47.3532C85.3543 47.8716 85.2306 48.3333 85.0166 48.7381C84.8023 49.1469 84.5062 49.4896 84.1282 49.7663C83.7539 50.0471 83.3082 50.2509 82.7911 50.3776C82.2777 50.5084 81.7014 50.5529 81.0622 50.5111ZM80.5963 49.3591L81.1459 49.395C81.6527 49.4282 82.1043 49.4049 82.5009 49.3251C82.8972 49.2493 83.2343 49.1206 83.5122 48.9392C83.7901 48.7577 84.0066 48.5272 84.1616 48.2477C84.3164 47.972 84.4055 47.6529 84.4289 47.2904C84.4515 46.9396 84.4038 46.6174 84.2858 46.3239C84.1675 46.0343 83.9823 45.7795 83.7303 45.5595C83.4781 45.3433 83.1606 45.1679 82.7779 45.0333C82.3951 44.8986 81.9504 44.8147 81.4437 44.7816L80.8941 44.7456C80.3834 44.7122 79.9277 44.7372 79.527 44.8206C79.1302 44.9042 78.7907 45.0386 78.5087 45.2237C78.2303 45.413 78.0138 45.6435 77.8593 45.9152C77.7045 46.1908 77.6158 46.5041 77.5932 46.8549C77.5695 47.2213 77.6167 47.5513 77.7348 47.8448C77.8528 48.1383 78.0381 48.3911 78.2906 48.6034C78.5467 48.8198 78.8664 48.9914 79.2497 49.1183C79.6368 49.2454 80.0857 49.3256 80.5963 49.3591Z" fill="white"/>
<path d="M77.4738 58.1038L78.2876 55.9747L79.1454 56.3071L78.3316 58.4362C78.174 58.8485 78.1119 59.2078 78.1454 59.514C78.1789 59.8202 78.2899 60.0769 78.4784 60.284C78.6655 60.4947 78.9084 60.658 79.2071 60.7737C79.4802 60.8796 79.76 60.9189 80.0464 60.8916C80.3315 60.868 80.5956 60.7567 80.839 60.5578C81.0859 60.3602 81.2882 60.0553 81.4458 59.643L82.1654 57.7602L75.0738 55.0121L75.4775 53.9558L83.4324 57.0384L82.309 59.9775C82.0789 60.5795 81.7805 61.0483 81.4139 61.3838C81.0473 61.7193 80.639 61.9235 80.1888 61.9962C79.7423 62.0703 79.2841 62.0163 78.8142 61.8343C78.3043 61.6367 77.9102 61.3604 77.6319 61.0054C77.3536 60.6503 77.1992 60.2282 77.1688 59.7388C77.142 59.2508 77.2437 58.7058 77.4738 58.1038Z" fill="white"/>
<path d="M68.8112 67.5657L68.0793 67.0084L70.7922 63.3961L71.5241 63.9534L68.8112 67.5657ZM77.4426 68.7471L70.655 63.5788L71.3341 62.6746L78.1217 67.8429L77.4426 68.7471ZM72.3075 69.4767L71.5756 68.9194L73.9296 65.785L74.6615 66.3423L72.3075 69.4767ZM74.9021 72.1298L74.1655 71.569L76.8433 68.0035L77.5798 68.5644L74.9021 72.1298Z" fill="white"/>
<path d="M70.6163 76.1823L68.3621 77.8837C67.8507 78.2697 67.3606 78.5173 66.8917 78.6265C66.4196 78.7381 65.9773 78.7098 65.5647 78.5416C65.1514 78.3789 64.7791 78.075 64.4479 77.6301C64.2146 77.3168 64.0651 76.9818 63.9993 76.6253C63.9327 76.2742 63.9503 75.9184 64.052 75.5578C64.1528 75.2027 64.3343 74.8578 64.5964 74.5229L64.7754 74.2336L66.894 72.6346L67.4527 73.3654L65.8532 74.5726C65.529 74.8174 65.3013 75.0773 65.1701 75.3525C65.0413 75.6308 64.9946 75.9083 65.0301 76.1849C65.0656 76.4615 65.1709 76.7174 65.3458 76.9524C65.5417 77.2156 65.7646 77.407 66.0145 77.5268C66.2643 77.6465 66.5396 77.6761 66.8403 77.6155C67.1402 77.5605 67.4631 77.4023 67.8092 77.1411L69.1608 76.121L64.6191 70.0205L65.5218 69.3392L70.6163 76.1823ZM61.5418 72.3431L65.5067 74.1955L64.5702 74.9097L60.6204 73.1267L60.5784 73.0703L61.5418 72.3431Z" fill="white"/>
<path d="M52.8057 80.4544L51.9621 82.2712L53.7992 82.4433L53.6983 83.3595L51.8376 83.0667L52.2775 85.0343L51.404 85.2081L51.0665 83.1843L49.4792 84.1633L49.0422 83.3362L50.7038 82.4619L49.2658 81.129L49.8735 80.4525L51.2616 81.8968L51.9847 80.0742L52.8057 80.4544Z" fill="white"/>
</svg>
